<svg width="241" height="271" viewBox="0 0 241 271" fill="none" xmlns="http://www.w3.org/2000/svg">
<path d="M118.522 148.123L142.228 134.51L141.914 71.8272L118.208 85.44L118.522 148.123" fill="#2F3232"/>
<path d="M80.2444 101.818L56.2977 88.6253L2.03369 119.685L25.9804 132.878L80.2485 101.818" fill="#2F3232"/>
<path d="M59.0752 157.789L59.2116 185.009L113.508 215.915L113.372 188.695L59.0752 157.789" fill="#2F3232"/>
<path d="M30.2961 103.508L56.2953 88.6277L30.2961 103.508Z" fill="#FCD14F"/>
<path d="M29.9774 39.6897L30.2648 97.1365L56.2718 82.2511L88.9887 100.658L89.0205 107.037L89.1566 134.205L113.165 147.871L112.857 86.3163L29.9756 39.6885" fill="url(#paint0_linear_109_615)"/>
<path d="M142.349 134.453L142.426 104.73L142.349 134.453Z" fill="#EE47AC"/>
<path d="M198.331 136.552L148.009 107.909L147.948 131.234L147.932 137.641L115.403 156.373L109.816 153.192L86.0184 139.646L62.01 153.311L115.927 184.002L198.33 136.553" fill="url(#paint1_linear_109_615)"/>
<path d="M28.8001 232.467L79.1218 203.826L58.7803 192.044L53.1925 188.808L53.1901 151.563L82.5751 134.838L82.7131 107.429L28.7964 138.118L28.8025 232.469" fill="url(#paint2_linear_109_615)"/>
<path d="M21.5931 269.166L109.017 219.975L96.1667 212.66L23.6459 253.939L23.6384 138.148L1.0022 125.08L1.003 257.315C0.950333 267.802 12.4057 274.397 21.5913 269.169" fill="#2F3232"/>
<path d="M1.00222 14.6879L1.00206 114.214L13.7778 106.774L13.6622 83.6646L13.3637 23.9819L115.078 81.2064L137.744 68.19L21.5889 2.83101C12.4033 -2.39739 0.947482 4.19792 1.00018 14.6846" fill="#2F3232"/>
<path d="M234.108 123.804L147.183 73.7557L147.256 88.4257L219.777 129.705L118.647 187.94L118.617 213.875L234.11 147.38C243.296 142.151 243.297 129.036 234.111 123.807" fill="#2F3232"/>
<defs>
<linearGradient id="paint0_linear_109_615" x1="30.2491" y1="93.983" x2="112.893" y2="93.5696" gradientUnits="userSpaceOnUse">
<stop stop-color="#F68518"/>
<stop offset="1" stop-color="#FAB219"/>
</linearGradient>
<linearGradient id="paint1_linear_109_615" x1="75.6555" y1="176.436" x2="184.103" y2="112.444" gradientUnits="userSpaceOnUse">
<stop stop-color="#ED0A85"/>
<stop offset="1" stop-color="#B01060"/>
</linearGradient>
<linearGradient id="paint2_linear_109_615" x1="56.0701" y1="232.334" x2="55.4589" y2="107.563" gradientUnits="userSpaceOnUse">
<stop stop-color="#2F5FB4"/>
<stop offset="1" stop-color="#4488CF"/>
</linearGradient>
</defs>
</svg>
