<svg width="486" height="139" viewBox="0 0 486 139" fill="none" xmlns="http://www.w3.org/2000/svg">
<g clip-path="url(#clip0_478_2046)">
<path d="M90.9919 48.1885C89.94 44.7803 88.4883 41.7298 86.6369 39.0369C84.8276 36.3019 82.6397 33.9666 80.073 32.0311C77.5484 30.0956 74.6451 28.6439 71.3631 27.6762C68.0811 26.6663 64.5046 26.1614 60.6336 26.1614C53.6909 26.1614 47.5057 27.9076 42.0778 31.4C36.6499 34.8923 32.3791 40.0257 29.2654 46.8C26.1939 53.5323 24.6581 61.7372 24.6581 71.4148C24.6581 81.1766 26.1939 89.4447 29.2654 96.219C32.337 102.993 36.6078 108.147 42.0778 111.682C47.5477 115.174 53.9013 116.92 61.1385 116.92C67.7025 116.92 73.3828 115.658 78.1795 113.133C83.0184 110.609 86.7421 107.032 89.3509 102.404C91.9596 97.7338 93.264 92.2638 93.264 85.9944L98.5657 86.8149H63.4738V68.5115H115.923V84.0378C115.923 95.104 113.566 104.676 108.854 112.755C104.141 120.833 97.661 127.061 89.414 131.437C81.167 135.771 71.6997 137.938 61.0123 137.938C49.1046 137.938 38.6485 135.266 29.6441 129.922C20.6818 124.536 13.6761 116.899 8.62689 107.011C3.61977 97.0816 1.11621 85.3001 1.11621 71.6673C1.11621 61.2323 2.5889 51.9123 5.53426 43.7074C8.5217 35.5024 12.6873 28.5387 18.031 22.8163C23.3747 17.0518 29.6441 12.6759 36.8392 9.6884C44.0343 6.65888 51.8606 5.14412 60.318 5.14412C67.471 5.14412 74.1402 6.19604 80.3255 8.29987C86.5107 10.3616 92.0017 13.307 96.7984 17.136C101.638 20.965 105.614 25.5092 108.728 30.7688C111.841 36.0284 113.882 41.835 114.85 48.1885H90.9919ZM190.458 95.3985V39.2262H213.306V136.17H191.153V118.94H190.143C187.955 124.368 184.357 128.807 179.35 132.257C174.385 135.708 168.263 137.433 160.984 137.433C154.63 137.433 149.013 136.023 144.132 133.204C139.293 130.343 135.506 126.198 132.771 120.77C130.036 115.3 128.669 108.694 128.669 100.952V39.2262H151.516V97.4182C151.516 103.561 153.2 108.442 156.566 112.06C159.932 115.679 164.35 117.488 169.82 117.488C173.186 117.488 176.447 116.668 179.603 115.027C182.758 113.386 185.346 110.945 187.366 107.706C189.428 104.424 190.458 100.321 190.458 95.3985ZM227.914 136.17V39.2262H250.762V136.17H227.914ZM239.401 25.4672C235.782 25.4672 232.669 24.268 230.06 21.8696C227.451 19.4291 226.147 16.5048 226.147 13.0966C226.147 9.64632 227.451 6.72199 230.06 4.32362C232.669 1.88318 235.782 0.662964 239.401 0.662964C243.062 0.662964 246.175 1.88318 248.742 4.32362C251.351 6.72199 252.655 9.64632 252.655 13.0966C252.655 16.5048 251.351 19.4291 248.742 21.8696C246.175 24.268 243.062 25.4672 239.401 25.4672ZM288.217 6.91134V136.17H265.37V6.91134H288.217ZM338.801 137.874C331.185 137.874 324.368 135.918 318.351 132.005C312.334 128.092 307.58 122.411 304.087 114.964C300.595 107.516 298.849 98.4701 298.849 87.8247C298.849 77.0531 300.616 67.9646 304.151 60.5591C307.727 53.1115 312.545 47.4943 318.604 43.7074C324.663 39.8784 331.416 37.9639 338.864 37.9639C344.544 37.9639 349.215 38.9317 352.875 40.8672C356.536 42.7606 359.439 45.0538 361.585 47.7467C363.731 50.3976 365.393 52.9011 366.571 55.2574H367.518V6.91134H390.429V136.17H367.96V120.897H366.571C365.393 123.253 363.689 125.756 361.459 128.407C359.229 131.016 356.284 133.246 352.623 135.097C348.962 136.949 344.355 137.874 338.801 137.874ZM345.175 119.129C350.014 119.129 354.138 117.825 357.546 115.216C360.954 112.565 363.542 108.884 365.309 104.171C367.076 99.4589 367.96 93.9679 367.96 87.6985C367.96 81.4291 367.076 75.9802 365.309 71.3517C363.584 66.7233 361.017 63.1257 357.609 60.5591C354.243 57.9924 350.098 56.7091 345.175 56.7091C340.084 56.7091 335.834 58.0345 332.426 60.6853C329.018 63.3361 326.451 66.9968 324.726 71.6673C323.001 76.3378 322.138 81.6815 322.138 87.6985C322.138 93.7575 323.001 99.1644 324.726 103.919C326.493 108.631 329.081 112.355 332.489 115.09C335.939 117.783 340.168 119.129 345.175 119.129ZM482.51 64.8509L461.682 67.123C461.093 65.0192 460.062 63.0416 458.59 61.1902C457.159 59.3388 455.224 57.8451 452.783 56.7091C450.343 55.573 447.355 55.0049 443.821 55.0049C439.066 55.0049 435.069 56.0358 431.829 58.0976C428.631 60.1593 427.053 62.8312 427.095 66.1132C427.053 68.9323 428.084 71.2255 430.188 72.9927C432.334 74.7599 435.868 76.2116 440.791 77.3476L457.327 80.8821C466.5 82.8597 473.316 85.9944 477.777 90.2862C482.279 94.578 484.551 100.195 484.593 107.138C484.551 113.239 482.763 118.624 479.228 123.295C475.736 127.923 470.876 131.542 464.649 134.151C458.421 136.759 451.268 138.064 443.19 138.064C431.324 138.064 421.773 135.581 414.535 130.616C407.298 125.609 402.985 118.645 401.597 109.725L423.876 107.579C424.886 111.955 427.032 115.258 430.314 117.488C433.596 119.718 437.867 120.833 443.127 120.833C448.554 120.833 452.909 119.718 456.191 117.488C459.515 115.258 461.177 112.502 461.177 109.22C461.177 106.443 460.104 104.15 457.959 102.341C455.855 100.532 452.573 99.1433 448.113 98.1756L431.576 94.7043C422.278 92.7687 415.398 89.5078 410.938 84.9214C406.478 80.293 404.269 74.4444 404.311 67.3755C404.269 61.4006 405.889 56.2252 409.171 51.8492C412.495 47.4312 417.102 44.0229 422.993 41.6246C428.926 39.1841 435.763 37.9639 443.505 37.9639C454.866 37.9639 463.807 40.3833 470.329 45.2221C476.893 50.0609 480.953 56.6039 482.51 64.8509Z" fill="#2F3232"/>
</g>
<defs>
<clipPath id="clip0_478_2046">
<rect width="485" height="138" fill="white" transform="translate(0.585449 0.585388)"/>
</clipPath>
</defs>
</svg>
