<svg width="73" height="73" viewBox="0 0 73 73" fill="none" xmlns="http://www.w3.org/2000/svg">
<path d="M0.958496 36.1509C0.958496 16.2686 17.0762 0.150879 36.9585 0.150879V0.150879C56.8407 0.150879 72.9585 16.2686 72.9585 36.1509V36.1509C72.9585 56.0331 56.8407 72.1509 36.9585 72.1509V72.1509C17.0762 72.1509 0.958496 56.0331 0.958496 36.1509V36.1509Z" fill="#1D9BF0"/>
<path d="M30.3705 55.1407C46.3365 55.1407 55.0665 41.9107 55.0665 30.4447C55.0665 30.0667 55.0665 29.6887 55.0485 29.3287C56.7405 28.1047 58.2165 26.5747 59.3865 24.8287C57.8385 25.5127 56.1645 25.9807 54.4005 26.1967C56.2005 25.1167 57.5685 23.4247 58.2165 21.3907C56.5425 22.3807 54.6885 23.1007 52.7085 23.4967C51.1245 21.8047 48.8745 20.7607 46.3725 20.7607C41.5845 20.7607 37.6965 24.6487 37.6965 29.4367C37.6965 30.1207 37.7685 30.7867 37.9305 31.4167C30.7125 31.0567 24.3225 27.6007 20.0385 22.3447C19.3005 23.6227 18.8685 25.1167 18.8685 26.7007C18.8685 29.7067 20.3985 32.3707 22.7385 33.9187C21.3165 33.8827 19.9845 33.4867 18.8145 32.8387C18.8145 32.8747 18.8145 32.9107 18.8145 32.9467C18.8145 37.1587 21.8025 40.6507 25.7805 41.4607C25.0605 41.6587 24.2865 41.7667 23.4945 41.7667C22.9365 41.7667 22.3965 41.7127 21.8565 41.6047C22.9545 45.0607 26.1585 47.5627 29.9565 47.6347C26.9865 49.9567 23.2425 51.3427 19.1745 51.3427C18.4725 51.3427 17.7885 51.3067 17.1045 51.2167C20.9025 53.7007 25.4745 55.1407 30.3705 55.1407Z" fill="white"/>
</svg>
