<svg width="72" height="73" viewBox="0 0 72 73" fill="none" xmlns="http://www.w3.org/2000/svg">
<path d="M0 36.1509C0 16.2686 16.1177 0.150879 36 0.150879V0.150879C55.8823 0.150879 72 16.2686 72 36.1509V36.1509C72 56.0331 55.8823 72.1509 36 72.1509V72.1509C16.1177 72.1509 0 56.0331 0 36.1509V36.1509Z" fill="#5865F2"/>
<path d="M53.4655 19.6337C50.2532 18.1143 46.8085 16.9949 43.2068 16.3538C43.1412 16.3414 43.0757 16.3723 43.0419 16.4342C42.5989 17.2464 42.1081 18.306 41.7645 19.1389C37.8907 18.5411 34.0367 18.5411 30.2423 19.1389C29.8986 18.2875 29.39 17.2464 28.945 16.4342C28.9112 16.3744 28.8457 16.3435 28.7801 16.3538C25.1804 16.9929 21.7357 18.1123 18.5214 19.6337C18.4935 19.6461 18.4697 19.6667 18.4539 19.6935C11.9199 29.7559 10.13 39.571 11.0081 49.2645C11.0121 49.3119 11.0379 49.3572 11.0736 49.3861C15.3845 52.6495 19.5604 54.6307 23.6587 55.9439C23.7243 55.9645 23.7938 55.9398 23.8355 55.8841C24.805 54.5194 25.6692 53.0804 26.4101 51.5672C26.4538 51.4786 26.4121 51.3734 26.3227 51.3384C24.952 50.8024 23.6468 50.1488 22.3912 49.4067C22.2919 49.3469 22.284 49.2005 22.3753 49.1304C22.6395 48.9263 22.9038 48.714 23.1561 48.4996C23.2018 48.4604 23.2654 48.4522 23.319 48.4769C31.5673 52.3588 40.497 52.3588 48.648 48.4769C48.7017 48.4501 48.7653 48.4584 48.8129 48.4975C49.0653 48.7119 49.3295 48.9263 49.5957 49.1304C49.687 49.2005 49.6811 49.3469 49.5818 49.4067C48.3262 50.1633 47.021 50.8024 45.6483 51.3363C45.5589 51.3714 45.5192 51.4786 45.5629 51.5672C46.3197 53.0783 47.1839 54.5173 48.1355 55.882C48.1752 55.9398 48.2467 55.9645 48.3123 55.9439C52.4305 54.6307 56.6063 52.6495 60.9172 49.3861C60.955 49.3572 60.9788 49.3139 60.9828 49.2665C62.0337 38.0598 59.2226 28.3252 53.5311 19.6955C53.5171 19.6667 53.4934 19.6461 53.4655 19.6337ZM27.6419 43.3622C25.1586 43.3622 23.1124 41.0121 23.1124 38.1259C23.1124 35.2397 25.1189 32.8895 27.6419 32.8895C30.1846 32.8895 32.211 35.2603 32.1713 38.1259C32.1713 41.0121 30.1648 43.3622 27.6419 43.3622ZM44.3888 43.3622C41.9055 43.3622 39.8594 41.0121 39.8594 38.1259C39.8594 35.2397 41.8658 32.8895 44.3888 32.8895C46.9316 32.8895 48.9579 35.2603 48.9183 38.1259C48.9183 41.0121 46.9316 43.3622 44.3888 43.3622Z" fill="white"/>
</svg>
