<svg width="73" height="73" viewBox="0 0 73 73" fill="none" xmlns="http://www.w3.org/2000/svg">
<path d="M0.0419922 36.1509C0.0419922 16.2686 16.1597 0.150879 36.042 0.150879V0.150879C55.9242 0.150879 72.042 16.2686 72.042 36.1509V36.1509C72.042 56.0331 55.9242 72.1509 36.042 72.1509V72.1509C16.1597 72.1509 0.0419922 56.0331 0.0419922 36.1509V36.1509Z" fill="url(#paint0_linear_459_1560)"/>
<path fill-rule="evenodd" clip-rule="evenodd" d="M16.338 35.7707C26.8328 31.1983 33.8309 28.1839 37.3324 26.7275C47.33 22.5692 49.4074 21.8469 50.7615 21.823C51.0593 21.8178 51.7251 21.8916 52.1565 22.2416C52.5207 22.5371 52.6209 22.9363 52.6688 23.2165C52.7168 23.4967 52.7765 24.1349 52.729 24.6337C52.1873 30.3261 49.843 44.1402 48.6504 50.5158C48.1458 53.2136 47.1521 54.1181 46.1901 54.2067C44.0995 54.399 42.512 52.8251 40.4872 51.4978C37.3187 49.4208 35.5288 48.1279 32.4532 46.1011C28.8989 43.7589 31.203 42.4715 33.2286 40.3677C33.7587 39.8171 42.9699 31.4388 43.1482 30.6788C43.1705 30.5837 43.1912 30.2294 42.9807 30.0423C42.7702 29.8552 42.4595 29.9192 42.2353 29.9701C41.9175 30.0422 36.8558 33.3878 27.0503 40.0068C25.6135 40.9934 24.3122 41.474 23.1462 41.4489C21.8608 41.4211 19.3883 40.7221 17.5502 40.1246C15.2957 39.3917 13.5038 39.0043 13.6599 37.7597C13.7411 37.1114 14.6339 36.4484 16.338 35.7707Z" fill="white"/>
<defs>
<linearGradient id="paint0_linear_459_1560" x1="36.042" y1="0.150879" x2="36.042" y2="71.6169" gradientUnits="userSpaceOnUse">
<stop stop-color="#2AABEE"/>
<stop offset="1" stop-color="#229ED9"/>
</linearGradient>
</defs>
</svg>
